# xmcd CD database file
#
# Track frame offsets:
#	150
#	14983
#	32413
#	53637
#
# Disc length: 987 seconds
#
# Revision: 0
# Processed by: cddbd v1.5PL3 Copyright (c) Steve Scherf et al.
# Submitted via: CDex 1.51
#
DISCID=2b03d904
DTITLE=J.e.t. - ゾウ
DYEAR=2004
DGENRE=JPop
TTITLE0=Sweet 1
TTITLE1=Ring
TTITLE2=Fragile
TTITLE3=モノクローム
EXTD=YEAR: 20040405
EXTT0=
EXTT1=
EXTT2=
EXTT3=
PLAYORDER=
